<?xml version="1.0" encoding="utf-8"?>
<!-- Generator: Adobe Illustrator 24.0.3, SVG Export Plug-In . SVG Version: 6.00 Build 0)  -->
<svg version="1.1" id="Calque_6" xmlns="http://www.w3.org/2000/svg" xmlns:xlink="http://www.w3.org/1999/xlink" x="0px" y="0px"
	 viewBox="0 0 83.7 84.8" style="enable-background:new 0 0 83.7 84.8;" xml:space="preserve">
<style type="text/css">
	.st0{fill:#FFFFFF;}
	.st1{fill:#F8CA00;}
</style>
<g>
	<path class="st0" d="M45.5,1c3,0,0.9,1,2.8,2.2c2.3,1.5,4.2,1.4,5.8,4.5c0.4-0.1,0.8-0.2,1.2-0.2c1.8,0,2.4,1.5,1.7,3.4
		c0.4,0.1,0.7,0.2,1.1,0.2c1.5,0,2.9-1.1,3.5-1.9c-1.8,4.4,4.1,5.2,6.2,5.7c3.8,0.9,5.3,2.8,8.3,2.8c0.5,0,1.1-0.1,1.8-0.2
		c0.8,1.6,2.8,1.3,4.9,1.7c-2,4-2.4,7-3.3,11.1c-0.4,1.7-0.1,3.8-1.3,3.8c-0.3,0-0.7-0.1-1.3-0.5c-3.1,3-4.7,9.6-7,13.4
		C72,46,73.3,45,74.3,45c1,0,1.6,1,2.3,4.1c0,0,0,0,0,0c0,0,0.4,2.6,0.4,2.6c0,0,0,0,0,0c0.1,1.2,1.3,1.3,1.2,2.2
		C78,55.1,77,56,75.7,56.4l-0.8,0.4c0.6,1.6,2,2.4,3.1,3.7c-2.2,1.4-0.7,3.1,0.9,4.5c2.3,1.9,5.3-0.7,2.5,4c-2,3.4-6.8,5.8-8.9,7.5
		c-3.1-0.6-5.8-2.8-9.1-3.4c-0.2,0.3-0.1,0.5,0.2,0.7c-2.5-0.2-3.7-0.9-5.2-0.9c-1,0-2,0.3-3.5,1.1c-3,1.6-6.2,5.1-3.1,8.9
		c-0.4-0.1-0.7-0.1-1.1-0.1c-1.9,0-3.7,1.2-5.5,1.2c-0.4,0-0.8-0.1-1.3-0.2c-2.7-1-3.3-2.7-6.2-3.4c-5.4-1.4-11.8,0.5-17.1-4.3
		c-0.6,0.5-0.5,0.3-1.1,0.6c0.8-1.8-0.2-2.7-2.1-3c3.2-1.9,2.6-6.9,3.6-9.9c0.4-0.3,0.8-0.5,1-0.5c0.1,0,0.2,0,0.3,0
		c0.3,0,0.6,0.1,0.4,0.4c-0.2,0.5-0.2,0.6-0.1,0.6c0.2,0,0.5-0.3,0.7-0.3c0,0,0,0,0.1,0c0.3,0.1,0.4,0.3,0.6,0.3
		c0.1,0,0.2,0,0.3-0.1c0.1-0.1,0.3-0.1,0.4-0.1c0.3,0,0.5,0.2,0.8,0.5c0.4,0.4,0.3,0.7,0.7,0.8c0.3,0.1,0.8,0.1,0.8,0.6
		c0,0.4,0.1,0.9,0.5,0.9c0,0,0.1,0,0.1,0c0.4-0.1,0.3-1,0.5-1c0,0,0.1,0,0.1,0.1c0.2,0.2,0.4,0.3,0.6,0.3c0.1,0,0.3-0.1,0.4-0.2
		c0.2-0.3-0.2-1,0-1.1c0.2-0.1,0.4-0.1,0.4-0.7c0-0.6-0.3-0.6,0.2-1s0.9-0.6,0.9-0.8s-0.3-0.3-0.1-0.6c0.2-0.3,0.5-0.2,0.9-0.4
		c0.4-0.2,0.1-0.5,0.3-0.8c0.1-0.2,0.1-0.3,0-0.3c-0.1,0-0.3,0-0.6,0.1c-0.5,0.1-0.9,0.3-1.1,0.3c-0.2,0-0.2-0.1-0.2-0.4
		c0.1-0.8,0.3-1.1,0.3-1.9c0-0.5,0-0.8-0.3-0.8c-0.1,0-0.3,0-0.5,0.1c-0.5,0.2-0.7,0.3-0.9,0.3c-0.1,0-0.2-0.1-0.2-0.2
		c-0.2-0.3-0.4-0.5-0.5-0.5c0,0,0,0-0.1,0c0,0,0,0-0.1,0c-0.2,0-0.5-0.2-0.5-0.5c0-0.3,0-0.9-0.4-1c-0.1,0-0.2,0-0.3,0
		c-0.2,0-0.3,0-0.4,0c-0.1,0-0.2,0-0.2-0.1c0-0.1-0.2-0.3-0.4-0.4c0-2-2.4-3.6-2.8-4.8c-0.1-0.2,0.5-4.5,0.6-4.9c-0.1,0-0.2,0-0.3,0
		c-4.8,0-4.9-6.5-6.6-8.2c0.6-0.6,0.6-1.1,1.6-1.6c-0.7,0.3-1.3,0.4-1.7,0.4c-1.4,0-2-1-0.9-2.3c0,0,0,0,0,0c-1,0-2.1-0.5-2.9-0.6
		c0.3-0.1,1.1-0.3,1.1-0.4c0,0,0,0,0,0c0,0,0,0,0,0s0,0,0,0c-0.8-0.5-0.9-0.4-1.6-0.8c0.1,0.3,0.2,0.6,0.2,0.9c-0.1,0-0.2,0-0.2,0
		c-0.3,0-0.4-0.1-0.5-0.1c-0.1,0-0.2,0.1-0.4,0.7c-0.2-0.9-0.3-1.2-0.1-1.9c-1.1-0.7-0.7-0.6-1.5-1.3c-0.4,0.7,0.2,0.3-0.3,1
		c-0.5-0.5-0.1-0.9-0.5-1.5c-0.6,0.4-0.8,0.6-0.9,0.6c-0.2,0,0-0.4-0.6-0.7c-0.2,0.2-0.4,0.2-0.5,0.2c-0.5,0-0.9-0.4-1.8-0.7
		c-0.5,0.4-0.6,0.8-1.1,0.8c-0.2,0-0.4,0-0.6-0.1c-0.8-1.4-0.4-1.3-1.9-2.4c0.7,0,1.5-0.4,2.3-0.4c0.1,0,0.2,0,0.3,0
		c-0.9-1,0-0.9-1.5-0.9c0,0-0.2-1.5-0.1-1.5c0,0,0,0,0,0c1,0.5,1.9,0.5,2.9,1c-1-1-0.2-0.3-0.8-1.1c-0.3,0.1-0.6,0.2-0.9,0.2
		c-0.1-0.2-0.1-0.4,0-0.5c0.2-0.1,0.4-0.2,0.6-0.3c-0.3,0-0.5,0.1-0.6,0.3c-0.5,0.2-0.9,0.3-1.2,0.3c-1.4,0-1.4-1.3,0.6-2
		c0.4-0.5,1.9-1,3.7-1.3c0,0.3,0,0.7,0,1C7,22.3,6.9,22,8,22c0.2,0,0.4,0,0.7,0c0.5-1.4,1.6-1.7,2.6-1.7c0.2,0,0.3,0,0.5,0
		c-0.1,0.3-0.2,0.7-0.2,1c0.1,0,0.3-0.1,0.4-0.1c1,0,1.6,1.4,2.2,2.8c0.9-0.9,1.7-1.3,2.4-1.3c0.8,0,1.6,0.5,2.3,1.2
		c-0.3-1.6-0.1-0.4,0.7-1.6c0.6,0.4,1,0.6,1.4,0.6c0.4,0,0.8-0.2,1.6-0.4c-1.2-0.3-2.6-8.1-3.1-9.9c1.4,0.3,2.1,0.5,3.1,0.5
		c0.3,0,0.7,0,1.1-0.1C23,16,25.6,17,28.4,17c1.9,0,3.9-0.4,5-1c-4.7-1.6,6.9-6.1,8-7.1c-0.3-1.4,0-2.3,0.3-3
		c-1.7-2.8,0.5-4.9,3.5-5C45.4,1,45.5,1,45.5,1 M76.6,49.1C76.6,49.1,76.6,49.1,76.6,49.1C76.6,49.1,76.6,49.1,76.6,49.1 M45.5,0
		L45.5,0l-0.2,0c-2.1,0-3.9,0.9-4.6,2.3c-0.6,1.1-0.6,2.4,0,3.7c-0.2,0.6-0.4,1.4-0.3,2.4C40,8.7,39.3,9,38.7,9.3
		c-4.4,2.2-7.5,3.9-7.3,5.8c0,0.2,0,0.3,0.1,0.5c-0.9,0.2-1.9,0.4-3,0.4c-1.8,0-3.1-0.4-3.6-1.1c-0.3-0.4-0.4-0.9-0.2-1.5
		c0.1-0.3,0-0.6-0.2-0.9c-0.2-0.2-0.5-0.3-0.8-0.3c0,0-0.1,0-0.1,0c-0.4,0-0.8,0.1-1.1,0.1c-0.9,0-1.5-0.2-2.7-0.5l-0.1,0
		c-0.1,0-0.2,0-0.2,0c-0.3,0-0.5,0.1-0.7,0.3c-0.2,0.2-0.3,0.6-0.3,0.9c0.1,0.3,0.2,0.7,0.3,1.2c0.9,4.1,1.5,6.5,2.2,7.9
		c-0.1,0-0.3-0.1-0.7-0.4c-0.2-0.1-0.4-0.2-0.6-0.2c-0.1,0-0.1,0-0.2,0c-0.3,0-0.5,0.2-0.7,0.4c-0.1,0.1-0.1,0.2-0.2,0.2
		c-0.2,0-0.3,0.1-0.4,0.2c-0.5-0.3-1-0.4-1.6-0.4c-0.7,0-1.4,0.2-2,0.7c-0.5-0.9-1-1.7-1.7-2c0-0.3,0-0.5-0.2-0.7
		c-0.2-0.2-0.4-0.4-0.7-0.4c-0.2,0-0.4,0-0.6,0c-1.8,0-2.8,0.8-3.3,1.7C8,21,8,21,8,21c-0.3,0-0.5,0-0.7,0c-0.1-0.2-0.2-0.3-0.3-0.5
		c-0.2-0.2-0.4-0.3-0.7-0.3c0,0-0.1,0-0.1,0c-0.7,0.1-3.1,0.4-4.1,1.4c-1.7,0.6-2.2,1.7-2,2.5c0.1,0.5,0.4,1,1,1.2
		c0,0.3,0.1,0.6,0.1,1c0,0,0,0.1,0,0.1c-0.1,0-0.2,0-0.2,0c-0.4,0-0.8,0.3-0.9,0.7c-0.1,0.4,0,0.8,0.3,1.1c1,0.7,1,0.8,1.3,1.3
		c0.1,0.2,0.2,0.5,0.4,0.8c0.1,0.2,0.3,0.4,0.5,0.5C3,31,3.3,31.1,3.6,31.1c0.7,0,1.1-0.3,1.4-0.6c0.1,0,0.2,0.1,0.3,0.1
		c0.4,0.2,0.8,0.4,1.2,0.4c0.1,0,0.1,0,0.2,0c0.3,0.4,0.7,0.5,0.9,0.5c0.1,0,0.2,0,0.2,0C7.9,31.6,8,31.8,8.2,32
		c0.2,0.2,0.5,0.3,0.7,0.3c0,0,0,0,0,0c0.3,0,0.5-0.1,0.7-0.3c0,0,0,0,0,0c0,0.6,0.1,1,0.2,1.7c0.1,0.4,0.5,0.7,0.9,0.8
		c0,0,0,0,0.1,0c0.3,0,0.7-0.2,0.8-0.5c0.1,0.1,0.3,0.1,0.4,0.1c0.3,0,0.7,0.1,1,0.2c0.2,0,0.4,0.1,0.5,0.1c-0.1,0.4,0,0.8,0.1,1.2
		c0.3,0.6,0.8,1,1.4,1.1c-0.1,0.3,0,0.7,0.2,1c0.4,0.4,0.8,1.4,1.2,2.4c0.9,2.4,2,5.5,5.3,6c-0.2,1.5-0.6,3.9-0.4,4.3
		c0.2,0.6,0.7,1.2,1.2,1.8c0.7,0.8,1.5,1.8,1.5,2.7c0,0.3,0.2,0.6,0.4,0.8c0,0,0.1,0,0.1,0.1c0.2,0.4,0.5,0.7,1.1,0.7
		c0,0,0.1,0,0.1,0l0,0.2c0.1,0.7,0.6,1.3,1.3,1.4c0,0,0,0,0,0c0.3,0.5,0.8,0.6,1.1,0.6c0.2,0,0.4-0.1,0.7-0.2c0,0.2-0.1,0.4-0.1,0.6
		c0,0.2-0.1,0.4-0.1,0.7c0,0.2-0.1,0.7,0.2,1.2c0.1,0.2,0.3,0.3,0.5,0.3c0,0.1,0,0.3,0,0.5c-0.1,0-0.1,0.1-0.2,0.1
		c-0.7,0.4-1,1-0.8,1.7c0,0,0,0,0,0.1c-0.2,0.1-0.4,0.4-0.4,0.7c0,0,0,0,0,0c0,0,0,0,0,0c-0.1,0-0.3,0-0.5,0.1
		c-0.2-0.2-0.5-0.4-1-0.5c-0.1-0.1-0.2-0.3-0.4-0.6c-0.3-0.3-0.8-0.8-1.5-0.8c-0.2,0-0.4,0-0.6,0.1c-0.1,0-0.2-0.1-0.3-0.1
		c0,0,0,0-0.1,0c0-0.1-0.1-0.2-0.1-0.2C23.3,62,22.7,62,22.4,62c-0.1,0-0.2,0-0.3,0c-0.3,0-0.7,0.1-1.5,0.6
		c-0.2,0.1-0.4,0.3-0.4,0.5c-0.3,1-0.5,2.2-0.7,3.4c-0.3,2.4-0.7,4.9-2.5,6c-0.4,0.2-0.6,0.6-0.5,1.1c0.1,0.4,0.4,0.7,0.8,0.8
		c1.1,0.2,1.4,0.5,1.4,0.6c0.1,0.2,0,0.6-0.1,1c-0.2,0.4-0.1,0.8,0.2,1.1c0.2,0.2,0.4,0.3,0.7,0.3c0.1,0,0.3,0,0.4-0.1
		c0.2-0.1,0.3-0.1,0.4-0.1c0.1,0,0.2-0.1,0.3-0.1c3.7,3,7.9,3.3,11.7,3.5c1.9,0.1,3.7,0.2,5.3,0.6c1.4,0.3,2.2,0.9,3,1.6
		c0.8,0.6,1.7,1.3,3,1.8c0.5,0.2,1,0.3,1.6,0.3c1,0,2-0.3,3-0.6c0.9-0.3,1.7-0.5,2.5-0.5c0.3,0,0.6,0,0.9,0.1c0.1,0,0.2,0,0.3,0
		c0.3,0,0.7-0.2,0.8-0.5c0.2-0.4,0.2-0.8-0.1-1.2c-0.9-1-1.2-2.1-1-3.1c0.4-1.8,2.2-3.4,3.8-4.2c1.6-0.8,2.5-0.9,3.1-0.9
		c0.6,0,1.3,0.1,2,0.3c0.8,0.2,1.8,0.4,3.1,0.6c0,0,0.1,0,0.1,0c0.3,0,0.6-0.2,0.8-0.4c1.2,0.4,2.3,0.9,3.4,1.4
		c1.4,0.7,2.9,1.4,4.5,1.7c0.1,0,0.1,0,0.2,0c0.2,0,0.5-0.1,0.6-0.2c0.6-0.5,1.3-1,2.2-1.6c2.4-1.6,5.4-3.6,6.9-6.3
		c1.1-1.8,1.5-2.9,1.1-3.7c-0.4-0.8-1.2-0.8-1.9-0.9c-0.6-0.1-1.3-0.1-2-0.6c-1.5-1.2-1.7-1.8-1.7-2.1c0-0.3,0.4-0.6,0.7-0.8
		c0.2-0.2,0.4-0.4,0.4-0.7c0-0.3,0-0.6-0.2-0.8c-0.4-0.4-0.8-0.8-1.2-1.2c-0.5-0.5-0.9-0.9-1.3-1.4c1.6-0.7,2.7-1.8,2.8-3.2
		c0.1-0.9-0.5-1.5-0.8-1.8c-0.3-0.3-0.4-0.4-0.4-0.6c0-0.1,0-0.1,0-0.2c0-0.3-0.3-1.8-0.3-2.3c0-0.1,0-0.2,0-0.3
		C77,46.3,76.2,44,74.3,44c0,0,0,0,0,0c-0.7,0-1.3,0.3-2.1,0.7c0.3-0.7,0.7-1.5,1-2.3c1.1-2.8,2.3-5.6,3.9-7.4
		c0.4,0.2,0.7,0.2,1.1,0.2c1.8,0,2-1.9,2.1-3.2c0.1-0.5,0.1-1,0.2-1.4c0.2-0.8,0.4-1.6,0.5-2.3c0.7-3.1,1.2-5.5,2.7-8.6
		c0.1-0.3,0.1-0.6,0-0.9c-0.1-0.3-0.4-0.5-0.7-0.5c-0.6-0.1-1.2-0.2-1.7-0.3c-1.5-0.2-2.2-0.3-2.5-0.9c-0.2-0.4-0.5-0.6-0.9-0.6
		c-0.1,0-0.1,0-0.2,0c-0.6,0.1-1.1,0.2-1.5,0.2c-1.4,0-2.4-0.5-3.8-1.2c-1.2-0.6-2.5-1.2-4.3-1.6c-0.2,0-0.4-0.1-0.6-0.1
		c-1.5-0.3-4.2-0.9-5-2.3c-0.3-0.5-0.2-1.1,0.1-1.9c0.2-0.5,0-1-0.4-1.2c-0.2-0.1-0.3-0.1-0.5-0.1c-0.3,0-0.6,0.1-0.8,0.4
		c-0.6,0.7-1.6,1.4-2.5,1.5c0.1-0.9,0-1.7-0.5-2.4c-0.5-0.8-1.4-1.2-2.5-1.2c-0.2,0-0.4,0-0.7,0.1c-1.2-1.9-2.6-2.6-4-3.3
		c-0.6-0.3-1.2-0.6-1.8-0.9c-0.5-0.3-0.5-0.4-0.5-0.7C48.2,0.3,47.2,0,45.5,0L45.5,0z"/>
	<path class="st1" d="M3.2,24.4c0.2-0.1,0.4-0.2,0.6-0.3C3.5,24.1,3.3,24.2,3.2,24.4z"/>
	<path class="st1" d="M12.2,33.2c0,0-0.1,0-0.1,0C12.1,33.2,12.1,33.2,12.2,33.2z"/>
	<g>
		<path class="st0" d="M22.9,63.4c-0.5,1.3,0.3,0.3,0.7,0.4c0.4,0.1,0.4,0.4,0.9,0.2s0.7,0,1.1,0.4c0.4,0.4,0.3,0.7,0.7,0.8
			c0.3,0.1,0.8,0.1,0.8,0.6c0,0.5,0.1,1,0.6,0.9c0.5-0.1,0.3-1.2,0.6-0.9s0.7,0.4,1,0.1c0.2-0.3-0.2-1,0-1.1
			c0.2-0.1,0.4-0.1,0.4-0.7c0-0.6-0.3-0.6,0.2-1s0.9-0.6,0.9-0.8s-0.3-0.3-0.1-0.6c0.2-0.3,0.5-0.2,0.9-0.4c0.4-0.2,0.1-0.5,0.3-0.8
			c0.2-0.3,0.2-0.3-0.6-0.2c-0.8,0.2-1.4,0.7-1.3-0.1c0.1-0.8,0.3-1.1,0.3-1.9s0-1-0.8-0.7s-0.9,0.5-1.1,0.1
			c-0.2-0.3-0.4-0.5-0.6-0.5c-0.2,0-0.6-0.2-0.6-0.5c0-0.3,0-0.9-0.4-1c-0.4-0.1-1,0.1-1-0.2c0-0.1-0.2-0.3-0.4-0.4
			c0,0.2,0,0.5-0.1,0.7c-0.1-0.3-0.2-0.6-0.4-0.8c0.1,0.5,0.2,1,0.2,1.5c0.1,0.6,0.1,1.3,0.7,1.6c0.4,0.2,0.6,0.7,1,0.8
			c0.2,0.1,0.6,0.1,0.7,0.3c0-0.1-0.1-0.1-0.2-0.1c-0.4,0-0.5,0-0.8-0.2c0,0-0.8-0.9-0.9-0.7c0,0,0.3,0.3,0.3,0.4
			c0.1,0.2,0,0.7,0,0.9c0,0.4-0.1,0.7,0.1,1c0,0,0.3,0.5,0.3,0.6c0,0.1-0.5-0.7-0.5-0.8c-0.1-0.4-0.1-0.8,0-1.2
			c0.1-0.5-0.5-0.8-0.8-1.2c-0.3-0.5-0.2-0.9-0.4-1.4c-0.3-0.9-0.6-1.6-1.1-2.4c-0.2-0.2-0.4-0.6-0.7-0.7c0,0,0,0,0-0.1
			c-0.8,2.2-0.9,4.8-1.1,7.2c0.1,0,0.1,0.1,0.2,0.2c0.1-0.2,0.2-0.4,0.3-0.6c0-0.1,1,1.3,0.8,1.3c-1,0.3-1.5,1.2-1.9,2.2
			c0.4-0.3,0.8-0.5,1-0.5C22.6,63,23,63,22.9,63.4z M27.6,59.4c-0.1,0-0.1-0.1-0.2-0.1C27.5,59.4,27.5,59.4,27.6,59.4z"/>
	</g>
	<path class="st1" d="M78.2,78.8C78.2,78.7,78.2,78.7,78.2,78.8C78.2,78.7,78.1,78.7,78.2,78.8z"/>
</g>
<g>
	<path class="st0" d="M32,58.7c0-0.1,0-0.2,0-0.2c0.1,0,0.3-0.1,0.4-0.1c0.1-0.5,0.5-1.7,1.2-3.7c0-0.1,0-0.1,0-0.1
		c0-0.1-0.1-0.1-0.2-0.1c-0.2,0-0.5,0.2-0.7,0.5c-0.3,0.4-0.4,0.7-0.4,0.9c0,0,0,0,0,0.1v0.1c0,0.1,0,0.1-0.1,0.1
		c-0.1,0-0.2-0.1-0.3-0.2c-0.1-0.1-0.2-0.2-0.2-0.3c0,0,0-0.1,0-0.1c0-0.4,0.2-0.7,0.5-1c0.4-0.3,0.8-0.5,1.3-0.5
		c0.4,0,0.8,0.2,0.8,0.6c0,0.1,0,0.1,0,0.2c-0.6,1.7-1,2.9-1.2,3.5c0.9,0,1.4,0.2,1.6,0.6c0.1,0.1,0.1,0.3,0.1,0.4c0,0,0,0.1,0,0.1
		c0,0.1-0.1,0.1-0.1,0.1c0,0-0.1,0-0.1-0.1c-0.1-0.2-0.6-0.3-1.3-0.3c-0.5,0-0.8,0-1.1,0.1h0c-0.1,0-0.1-0.1-0.2-0.3
		C32,58.9,32,58.8,32,58.7z"/>
	<path class="st0" d="M35.2,59c-0.2-0.1-0.3-0.2-0.3-0.3c0-0.1-0.1-0.2-0.1-0.4c0-0.3,0.1-0.7,0.2-1.1c0.1-0.4,0.3-0.8,0.5-1.1
		c0.2-0.3,0.5-0.5,0.7-0.5c0.4,0,0.7,0.2,0.9,0.5l0.1-0.2c0-0.1,0.1-0.1,0.2-0.1c0.1,0,0.2,0.1,0.4,0.2c0.1,0.1,0.2,0.2,0.2,0.2v0
		l0,0l-0.1,0.2c-0.3,1-0.5,2.4-0.2,2.6c0.1,0,0.1,0.2,0,0.2c-0.2,0.1-0.6-0.1-0.7-0.4c-0.2-0.3-0.1-0.8,0-1.3
		c-0.5,1.1-0.9,1.6-1,1.6C35.6,59.2,35.4,59.1,35.2,59z M36.8,56.2c-0.2,0-0.4,0.1-0.6,0.4c-0.4,0.5-0.6,1.3-0.6,1.8
		c0,0.1,0,0.2,0,0.3c0,0.1,0.1,0.1,0.1,0.1c0.4,0,1.1-1.9,1.3-2.2C37,56.3,36.9,56.2,36.8,56.2z"/>
	<path class="st0" d="M43.7,55.6c0.2-0.2,0.3-0.5,0.3-0.6c0-0.3-0.1-0.4-0.4-0.4c-0.4,0-0.7,0.2-1.1,0.6c-0.4,0.4-0.7,0.9-0.9,1.5
		s-0.3,1-0.3,1.4c0,0.4,0.1,0.6,0.4,0.6c0.2,0,0.5-0.2,0.8-0.5c0.3-0.3,0.6-0.7,0.8-1c0.1-0.2,0.2-0.3,0.2-0.4c0,0,0.1-0.1,0.2-0.1
		c0.1,0,0.3,0.1,0.4,0.2c0.1,0.1,0.1,0.1,0.1,0.2c0,0,0,0,0,0.1c-0.5,1-0.7,1.7-0.7,2.2c0,0.1-0.1,0.2-0.2,0.2c0,0,0,0-0.1,0
		c-0.2-0.1-0.5-0.2-0.5-0.5c0-0.2,0.1-0.4,0.2-0.8c-0.3,0.5-0.7,0.8-1.1,0.8c-0.7,0-1.1-0.6-1.1-1.4c0-0.5,0.1-1,0.3-1.5
		s0.5-1,0.9-1.4c0.4-0.4,0.8-0.6,1.3-0.6c0.7,0,1.2,0.5,1.2,1.2c0,0.4-0.3,0.9-0.9,1.1c0,0,0,0-0.1,0c-0.2,0-0.4-0.2-0.4-0.4
		c0-0.1,0-0.1,0.1-0.1C43.3,56,43.6,55.9,43.7,55.6z"/>
	<path class="st0" d="M45.7,56.1L45.7,56.1L45.7,56.1c-0.1,0.3-0.3,0.8-0.6,1.4c-0.2,0.7-0.4,1.1-0.4,1.3c0.1,0,0.4-0.2,0.7-0.6
		c0.3-0.4,0.6-0.8,0.8-1.3c0,0,0.1-0.1,0.2,0c0.1,0,0.1,0.1,0.1,0.2c-0.7,1.4-1.3,2.1-1.7,2.1c-0.1,0-0.2,0-0.4-0.1
		c-0.1-0.1-0.2-0.1-0.3-0.2c0,0,0-0.1,0-0.1c0-0.3,0.1-0.7,0.4-1.4c0.3-0.7,0.5-1.2,0.6-1.5c0-0.1,0.2-0.1,0.5,0.1
		C45.6,55.9,45.7,56,45.7,56.1z M46.3,54.8C46.3,54.8,46.3,54.8,46.3,54.8c-0.2,0.3-0.3,0.4-0.3,0.5c0,0.1-0.1,0.1-0.2,0.1
		c-0.2,0-0.4-0.2-0.4-0.3c0-0.1,0-0.4,0.1-0.6c0.1-0.1,0.2-0.1,0.2-0.1c0.1,0,0.2,0.1,0.4,0.2C46.3,54.6,46.3,54.7,46.3,54.8z"/>
	<path class="st0" d="M47.3,55.7c0.2-0.1,0.3-0.1,0.4-0.1c0.3,0,0.5,0.2,0.5,0.4c0,0,0,0.1,0,0.1c-0.1,0.3-0.3,0.7-0.5,1.4
		c-0.2,0.7-0.4,1.1-0.4,1.3c0.1,0,0.4-0.2,0.6-0.6c0.3-0.4,0.6-0.8,0.8-1.3c0-0.1,0.1-0.1,0.2,0C49,56.9,49,57,49,57
		c-0.7,1.4-1.3,2.1-1.7,2.1c-0.2,0-0.6-0.2-0.6-0.3c0,0,0-0.1,0-0.1c0-0.3,0.1-0.7,0.3-1.3c0.2-0.6,0.4-1.1,0.5-1.4
		c-0.2,0-0.4,0-0.6,0c-0.1,0.3-0.3,0.7-0.5,1c0,0-0.1,0.1-0.2,0c-0.1,0-0.1-0.1-0.1-0.2c0.2-0.4,0.3-0.7,0.4-0.9
		c-0.2-0.1-0.3-0.2-0.3-0.4c0,0,0-0.2,0.1-0.3c0.1-0.2,0.1-0.3,0.1-0.3c0-0.1,0.1-0.1,0.2-0.1c0.2,0,0.5,0.1,0.5,0.2
		c0,0.1-0.1,0.3-0.2,0.6C47,55.8,47.1,55.8,47.3,55.7z"/>
	<path class="st0" d="M51.1,56.8c0,0.2,0,0.4-0.1,0.6c0.1,0,0.1,0.1,0.2,0.1c0.1,0,0.2-0.1,0.4-0.5c0-0.1,0.1-0.1,0.2,0
		c0.1,0.1,0.1,0.1,0.1,0.2c-0.3,0.5-0.5,0.7-0.8,0.7c0,0-0.1,0-0.2,0c-0.2,0.4-0.4,0.7-0.6,1c-0.2,0.3-0.5,0.4-0.7,0.4
		c-0.7,0-1.1-0.5-1.1-1.3c0-0.5,0.2-1.1,0.5-1.5c0.3-0.5,0.7-0.7,1.2-0.7C50.7,55.7,51.1,56.1,51.1,56.8z M49.2,58.3
		c0,0.4,0.1,0.6,0.4,0.6c0.4,0,0.8-0.6,1.1-1.3c-0.2-0.2-0.2-0.4-0.2-0.6c0-0.3,0.1-0.6,0.3-0.7c-0.1-0.1-0.2-0.2-0.3-0.2
		C49.8,56,49.1,57.6,49.2,58.3z"/>
	<path class="st0" d="M52.5,55.8c0.1,0.1,0.2,0.1,0.2,0.2c0,0,0,0,0,0.1c-0.2,0.4-0.4,0.8-0.5,1.1c0.5-0.9,1-1.5,1.5-1.5
		c0.1,0,0.2,0.1,0.4,0.2c0.1,0.1,0.2,0.2,0.2,0.2c0,0,0,0,0,0c-0.1,0.3-0.3,0.7-0.6,1.4c-0.2,0.7-0.4,1.1-0.4,1.3
		c0.1,0,0.4-0.2,0.7-0.6c0.3-0.4,0.6-0.8,0.8-1.3c0,0,0.1-0.1,0.2,0C55,57,55,57,55,57.1c-0.7,1.4-1.3,2.1-1.7,2.1
		c-0.1,0-0.2,0-0.4-0.1c-0.1-0.1-0.2-0.1-0.3-0.2c0,0,0-0.1,0-0.1c0-0.2,0.1-0.6,0.3-1.2c0.2-0.5,0.4-1,0.6-1.5
		c-0.3,0.3-0.7,0.7-1,1.4s-0.6,1.2-0.6,1.5c0,0.1-0.1,0.2-0.2,0.2h0l0,0c-0.3-0.1-0.5-0.3-0.5-0.5c0-0.3,0.1-0.7,0.3-1.3
		c0.2-0.6,0.4-1.1,0.7-1.6c0,0,0.1-0.1,0.2-0.1C52.3,55.7,52.4,55.7,52.5,55.8z"/>
	<path class="st0" d="M58.1,54.6L58.1,54.6L58.1,54.6c-0.1,0.3-0.4,1-0.8,2.2c-0.4,1.2-0.6,1.9-0.6,2.1c0.1,0,0.4-0.2,0.7-0.6
		s0.6-0.8,0.8-1.3c0,0,0.1-0.1,0.2,0c0.1,0.1,0.1,0.1,0.1,0.2c-0.7,1.4-1.3,2.1-1.7,2.1c-0.1,0-0.2,0-0.4-0.1
		C56.1,59,56,58.9,56,58.8c0,0,0,0,0-0.1c0-0.1,0-0.3,0.1-0.4c-0.3,0.6-0.5,0.8-0.7,0.8c-0.2,0-0.4-0.1-0.6-0.2s-0.3-0.2-0.3-0.3
		c0-0.1-0.1-0.2-0.1-0.4c0-0.3,0.1-0.7,0.2-1.1c0.1-0.4,0.3-0.8,0.5-1.1c0.2-0.3,0.5-0.5,0.7-0.5c0.4,0,0.7,0.2,0.9,0.5
		c0.3-0.9,0.6-1.6,0.8-1.9c0-0.1,0.1-0.1,0.2-0.1c0.1,0,0.2,0.1,0.4,0.2C58.1,54.4,58.1,54.5,58.1,54.6z M56.6,56.5
		c-0.1-0.2-0.1-0.4-0.2-0.4c-0.2,0-0.4,0.1-0.6,0.4c-0.4,0.5-0.6,1.3-0.6,1.8c0,0.1,0,0.2,0,0.3c0,0.1,0.1,0.1,0.1,0.1
		c0.1,0,0.2-0.2,0.4-0.6l0.3-0.5c0.1-0.2,0.2-0.4,0.3-0.6L56.6,56.5z"/>
	<path class="st0" d="M60.9,56.9c0-0.1,0.1-0.1,0.2,0c0.1,0,0.1,0.1,0.1,0.2l-0.3,0.6c-0.1,0.1-0.2,0.3-0.3,0.5
		c-0.3,0.5-0.7,0.9-1.2,0.9c-0.9,0.1-1.5-0.5-1.4-1.3c0-0.5,0.2-1,0.6-1.5c0.4-0.5,0.7-0.7,1.2-0.7c0.6,0,0.9,0.4,0.8,0.8
		c0,0.5-0.8,1.6-1.8,1.6c0,0.4,0.3,0.7,0.7,0.6C59.7,58.7,60.2,58.2,60.9,56.9z M59.9,56.2c0-0.1,0-0.2-0.1-0.2
		c-0.3,0-0.7,0.5-1,1.1c-0.1,0.2-0.2,0.5-0.2,0.7c0,0,0,0,0,0C59.2,57.7,59.9,56.5,59.9,56.2z"/>
</g>
</svg>
